# Blender 4.1.1
# www.blender.org
mtllib biolaRoca1.mtl
o Stone_low_1
v 0.244081 0.270887 1.007827
v 0.241684 0.270784 1.006843
v 0.245825 0.271189 1.007593
v -0.713993 2.014207 -0.721657
v -0.716297 2.009417 -0.721767
v 0.175713 0.195923 1.055671
v 0.182169 1.750196 -0.052494
v 0.171807 1.752039 -0.194591
v 0.557344 1.476413 0.714755
v 0.227399 1.711411 -0.116142
v 0.161581 1.648751 -0.110653
v -0.715488 2.013441 -0.721347
v 0.234774 1.741545 -0.310573
v -0.903611 1.349254 -0.424851
v 0.389342 1.895776 -0.094723
v 0.216681 1.690211 -0.163481
v -0.352535 0.004635 -1.338326
v 0.879352 0.229455 -0.796784
v -1.101290 0.146723 -0.527466
v 0.809045 0.786953 0.493187
v -0.604852 0.608051 0.767298
v 0.464271 0.446199 0.834667
v -0.235668 1.034816 -0.669677
v -0.467875 1.462498 0.361027
v 0.294627 0.769366 0.937990
v -0.367457 2.012956 -0.095516
v -0.488609 1.685217 -0.783174
v 0.534736 1.503072 -0.537499
v -0.855475 0.998576 -0.288019
v 0.892139 1.662841 0.155583
v -0.742390 0.586100 0.264160
v 0.934689 0.391783 0.115612
v -0.035970 1.542165 -0.524625
v -0.156405 0.005994 0.933219
v 0.138355 0.350210 0.671767
v 0.378905 1.432578 -0.630042
v 0.153979 0.004721 0.169215
v 1.182778 0.325132 -0.603458
v 0.426622 1.713498 0.129858
v 0.746119 0.754564 -0.854952
v 0.676937 0.004442 0.242101
v 0.208627 1.910614 0.150088
v 0.822570 0.914747 -0.572921
v -0.249144 1.312313 -0.585698
v 0.796714 1.479888 0.376346
v 0.322922 1.492085 -0.454492
v -0.623372 2.061559 -0.655387
v 0.479413 0.329356 0.356937
v -0.699978 1.083999 0.018534
v 0.952863 0.750392 0.079368
v -1.050873 0.004817 -0.645255
v -0.272613 1.814643 -0.652418
v -0.531656 0.277335 -1.251669
v -0.022440 1.042566 0.764507
v 0.407528 0.751989 -0.997836
v 0.255849 1.043152 1.005665
v 0.703795 0.243699 -1.011725
v 0.400421 1.860648 -0.436602
v -0.586241 0.842258 -0.364543
v 1.087449 0.006406 -0.518681
v 0.097547 0.889152 -0.826420
v -0.471113 0.195147 0.954171
v 0.877152 1.186343 0.010070
v -0.739046 1.803386 -0.202824
v 0.139606 1.643769 -0.270958
v 0.335189 0.236150 -1.150376
v 0.786716 1.083950 0.004311
v 0.828651 1.453287 -0.315426
v 0.202595 0.592158 -1.128051
v 0.244935 1.561596 -0.019539
v 1.006052 0.762343 -0.682042
v -0.953684 0.472034 0.134920
v 0.888317 0.956247 0.461288
v -0.743423 0.342064 0.640047
v 1.099760 0.685867 -0.345109
v 0.255466 1.771190 0.345906
v 0.577118 0.783215 0.778387
v -0.117107 0.726629 -0.893829
v 0.624717 1.705219 -0.556780
v -0.519735 1.965988 -0.724547
v 0.143196 0.015832 -1.276812
v 0.975928 0.004663 -0.768707
v -0.307471 1.891293 0.306663
v -0.815879 0.156069 0.320180
v 0.569817 0.776105 -0.745984
v 0.696756 0.624365 0.527927
v 1.016070 0.008889 -0.183131
v -0.392841 0.727977 0.865762
v 0.017599 0.445961 -1.164218
v 1.019590 0.565409 0.189529
v -0.803615 0.818904 0.060792
v -0.205405 0.165092 -1.231488
v 0.274954 1.743937 0.123366
v -0.290834 1.244239 0.464035
v -1.014771 0.627770 -0.231200
v 1.091890 0.192817 -0.799575
v 0.002743 0.813740 0.896638
v 0.869138 0.694692 0.204055
v -0.162464 0.004579 0.580817
v -0.589811 0.960273 -0.467411
v 0.232432 1.700269 0.577616
v 0.873814 1.002769 -0.385069
v -1.034904 0.485526 -0.754422
v 0.224121 0.641786 0.945166
v -0.782985 1.789902 -0.782224
v 1.091828 0.226389 -0.045043
v -0.503063 0.630090 -0.792609
v -0.453108 0.007296 0.994441
v 0.809975 1.190752 0.536137
v 0.313278 0.138685 -1.070078
v 0.850856 1.258945 -0.456507
v 0.628119 0.289820 0.266830
v -0.304801 -0.001204 1.074991
v -0.378431 0.898916 -0.554248
v -0.451455 1.767522 0.332264
v 0.737005 0.102152 0.275077
v 0.102052 1.839739 -0.239439
v 0.816557 0.838764 0.602381
v 0.842011 1.628722 -0.316246
v -0.244628 1.403180 0.644884
v 0.891159 0.437115 -0.876375
v -0.683696 0.643033 -0.487469
v -0.020337 0.115287 0.602620
v 1.123108 0.564191 -0.167367
v -0.077188 2.012265 0.033880
v -0.285764 0.408366 -1.201809
v 0.565336 1.912863 -0.058227
v -0.027792 1.783581 -0.465986
v 0.228220 1.182332 -0.724775
v 0.044688 1.230097 0.809341
v -0.482893 0.004815 0.733970
vn 0.6419 -0.1087 0.7590
vn 0.5696 -0.7114 0.4117
vn -0.6457 0.0732 -0.7601
vn 0.7235 -0.6623 0.1946
vn 0.1358 -0.9635 -0.2309
vn 0.6327 -0.7591 0.1531
vn 0.9238 0.3434 -0.1692
vn 0.9244 0.2409 -0.2957
vn -0.7211 0.5062 0.4730
vn 0.8340 0.1923 -0.5171
vn -0.8211 0.5087 0.2588
vn -0.7138 0.5891 -0.3789
vn -0.8500 0.3842 0.3604
vn -0.4960 0.8669 0.0500
vn -0.8944 0.4272 0.1324
vn 0.7831 0.4778 -0.3980
vn -0.1902 0.9755 -0.1107
vn 0.9481 0.1078 -0.2990
vn 0.8872 0.4026 0.2251
vn 0.9888 -0.1161 -0.0936
vn 0.1135 0.1757 0.9779
vn 0.0318 0.9979 -0.0565
vn -0.2654 0.9017 0.3415
vn 0.2383 0.9712 0.0038
vn 0.5335 0.7653 -0.3600
vn 0.1696 -0.1896 -0.9671
vn 0.5421 0.3594 -0.7596
vn 0.4016 0.3217 -0.8574
vn 0.4316 0.5901 -0.6822
vn -0.3064 -0.3584 -0.8819
vn -0.8953 -0.1167 -0.4299
vn -0.7551 -0.1244 -0.6437
vn -0.0089 0.8592 0.5115
vn -0.5271 0.8210 0.2195
vn 0.0139 0.6992 0.7148
vn 0.4752 0.7702 0.4254
vn 0.2600 0.9083 0.3276
vn 0.3963 0.6066 -0.6892
vn -0.7233 -0.1634 0.6709
vn -0.8335 0.0024 0.5525
vn -0.7862 0.3226 0.5272
vn -0.6671 0.3634 -0.6504
vn -0.3698 0.4979 0.7844
vn -0.5859 0.4997 0.6380
vn -0.2632 -0.9591 -0.1037
vn -0.0389 -0.9933 -0.1090
vn 0.0716 -0.9894 0.1266
vn 0.4390 0.4493 -0.7781
vn 0.2711 0.5222 -0.8086
vn 0.2140 0.3946 -0.8936
vn -0.5989 0.5976 -0.5331
vn -0.3377 0.6839 -0.6467
vn -0.1110 0.5825 -0.8052
vn -0.0495 0.5317 -0.8455
vn 0.0400 -0.9938 0.1039
vn -0.4207 0.8307 -0.3647
vn -0.8836 0.4542 -0.1140
vn -0.8462 0.3649 0.3883
vn -0.7682 0.3347 0.5458
vn -0.8620 0.3462 0.3702
vn 0.7863 0.2509 -0.5646
vn 0.0842 -0.9878 -0.1308
vn -0.7708 -0.0892 0.6308
vn -0.8817 -0.0304 0.4708
vn -0.1625 0.1414 0.9765
vn 0.4745 0.4777 0.7393
vn 0.7082 0.1598 0.6877
vn 0.9930 -0.0410 0.1107
vn -0.5246 0.1680 -0.8346
vn -0.0437 0.0671 -0.9968
vn -0.0180 0.3199 -0.9473
vn -0.1953 0.8162 0.5438
vn 0.2718 0.2505 0.9292
vn -0.4259 0.3240 0.8448
vn -0.4541 0.2246 0.8622
vn -0.7293 0.3475 0.5894
vn 0.2545 0.2127 -0.9434
vn 0.4140 0.9094 0.0399
vn 0.4967 0.6437 -0.5822
vn -0.2874 0.6919 -0.6623
vn -0.9714 0.1188 0.2054
vn 0.7967 0.4809 -0.3661
vn -0.9819 -0.1001 0.1607
vn -0.8279 -0.4551 0.3278
vn -0.9287 0.0993 0.3574
vn -0.6141 0.0817 -0.7850
vn 0.4474 -0.1161 0.8867
vn 0.5988 -0.3526 0.7191
vn 0.2345 -0.1777 0.9557
vn 0.8716 -0.2788 0.4032
vn 0.9970 0.0299 0.0720
vn 0.8426 0.1610 0.5140
vn 0.7127 0.2822 -0.6423
vn -0.2360 0.6446 -0.7272
vn 0.5650 -0.8119 0.1470
vn 0.4845 -0.8738 -0.0405
vn 0.0529 -0.9983 0.0224
vn 0.6864 -0.6711 0.2800
vn 0.9611 -0.2731 0.0421
vn 0.2655 0.0405 -0.9633
vn 0.2696 0.5119 -0.8156
vn 0.4433 -0.0692 -0.8937
vn 0.3863 0.5487 -0.7414
vn 0.6794 0.0128 -0.7337
vn 0.7435 0.4579 -0.4873
vn 0.9907 0.0834 -0.1076
vn 0.3949 -0.8942 0.2108
vn 0.5470 -0.0923 0.8321
vn 0.6157 0.7849 -0.0694
vn 0.9189 0.3943 0.0109
vn 0.9350 0.3440 0.0866
vn 0.8847 0.3983 0.2423
vn 0.5074 -0.6595 0.5546
vn 0.9829 -0.1689 0.0732
vn -0.4286 -0.8817 0.1975
vn 0.0504 -0.1145 -0.9921
vn -0.2100 0.2685 0.9401
vn 0.5896 -0.0049 0.8077
vn -0.0603 -0.0361 0.9975
vn 0.4361 0.1270 -0.8909
vn 0.2537 0.0630 -0.9652
vn 0.4388 -0.0394 -0.8977
vn -0.3230 0.4085 -0.8537
vn 0.1032 0.5632 -0.8198
vn 0.9750 0.1881 0.1181
vn 0.2564 0.4442 -0.8584
vn 0.3879 0.0442 -0.9206
vn 0.7007 -0.1259 0.7023
vn -0.5986 0.4651 -0.6522
vn -0.2730 -0.9523 0.1365
vn -0.4023 0.8280 -0.3906
vt 0.610216 0.402914
vt 0.640178 0.310002
vt 0.638351 0.337012
vt 0.654757 0.320502
vt 0.639336 0.337401
vt 0.211236 0.628864
vt 0.210791 0.628617
vt 0.211585 0.628854
vt 0.591024 0.486982
vt 0.229426 0.584826
vt 0.233952 0.622943
vt 0.219099 0.608694
vt 0.210301 0.627141
vt 0.208451 0.612566
vt 0.247769 0.668459
vt 0.297869 0.734259
vt 0.270903 0.713286
vt 0.219395 0.389674
vt 0.145857 0.410934
vt 0.145890 0.410727
vt 0.278892 0.586985
vt 0.259652 0.629800
vt 0.430609 0.689593
vt 0.395404 0.613397
vt 0.474860 0.621949
vt 0.561600 0.369016
vt 0.149005 0.423793
vt 0.222805 0.464698
vt 0.238495 0.512222
vt 0.174403 0.552040
vt 0.100327 0.396367
vt 0.114798 0.456444
vt 0.068731 0.471243
vt 0.128557 0.426815
vt 0.131593 0.257183
vt 0.203958 0.249314
vt 0.140142 0.381754
vt 0.264743 0.671810
vt 0.311226 0.598920
vt 0.304009 0.665398
vt 0.351553 0.505365
vt 0.419343 0.570157
vt 0.314305 0.545298
vt 0.298009 0.771020
vt 0.272054 0.741114
vt 0.365993 0.359365
vt 0.319911 0.373696
vt 0.278162 0.276657
vt 0.145814 0.410265
vt 0.465640 0.289472
vt 0.448710 0.372720
vt 0.998047 0.716704
vt 0.846893 0.857574
vt 0.771451 0.533913
vt 0.515064 0.737228
vt 0.535015 0.802418
vt 0.405386 0.798098
vt 0.169004 0.101485
vt 0.008653 0.199566
vt 0.002188 0.100150
vt 0.727738 0.937418
vt 0.573878 0.934659
vt 0.629872 0.877891
vt 0.702671 0.543988
vt 0.149179 0.183601
vt 0.239762 0.170059
vt 0.349898 0.209175
vt 0.444551 0.246792
vt 0.292181 0.230950
vt 0.460435 0.711273
vt 0.659153 0.720623
vt 0.526911 0.210608
vt 0.438784 0.191520
vt 0.583529 0.206507
vt 0.422168 0.506433
vt 0.476590 0.531094
vt 0.519856 0.533346
vt 0.145953 0.229823
vt 0.400460 0.924538
vt 0.456095 0.846372
vt 0.285894 0.454954
vt 0.486420 0.413358
vt 0.370179 0.401863
vt 0.429675 0.408439
vt 0.293486 0.421334
vt 0.400072 0.760603
vt 0.329548 0.652090
vt 0.377462 0.727737
vt 0.330553 0.722920
vt 0.193186 0.307250
vt 0.403201 0.686005
vt 0.227418 0.052263
vt 0.396675 0.136660
vt 0.323665 0.167928
vt 0.040750 0.056363
vt 0.216823 0.011986
vt 0.618883 0.568561
vt 0.569655 0.556083
vt 0.663018 0.515515
vt 0.627778 0.606296
vt 0.578808 0.635172
vt 0.585801 0.575297
vt 0.129444 0.505397
vt 0.133201 0.561647
vt 0.363201 0.785138
vt 0.353769 0.860106
vt 0.694362 0.409329
vt 0.765255 0.346756
vt 0.806069 0.434271
vt 0.761511 0.427754
vt 0.647365 0.677794
vt 0.687698 0.835018
vt 0.578256 0.844113
vt 0.650859 0.789372
vt 0.559666 0.783762
vt 0.631671 0.726406
vt 0.550275 0.731618
vt 0.606726 0.699686
vt 0.656768 0.624916
vt 0.682034 0.542605
vt 0.271022 0.553599
vt 0.501781 0.694333
vt 0.556691 0.666606
vt 0.555095 0.588111
vt 0.056656 0.357477
vt 0.670763 0.490624
vt 0.554368 0.514437
vt 0.519944 0.153196
vt 0.173659 0.573162
vt 0.001953 0.001953
vt 0.683831 0.894890
vt 0.500262 0.353850
vt 0.543329 0.446790
vt 0.536648 0.389078
vt 0.605555 0.761847
vt 0.712143 0.821546
vt 0.640396 0.753671
vt 0.051038 0.278227
vt 0.523965 0.890721
vt 0.471927 0.943251
vt 0.556791 0.096907
vt 0.605878 0.190992
vt 0.496496 0.618267
vt 0.271867 0.782489
vt 0.263546 0.755635
vt 0.776055 0.885172
vt 0.764657 0.830363
vt 0.248370 0.658255
vt 0.542885 0.501180
vt 0.087935 0.245476
vt 0.555609 0.193339
vt 0.081338 0.165226
s 1
usemtl Stone_low_1.001
f 22/1/1 6/2/2 1/3/3
f 1/3/3 6/4/2 2/5/4
f 1/6/3 2/7/4 3/8/5
f 1/3/3 2/5/4 22/1/1
f 86/9/6 2/5/4 6/4/2
f 22/1/1 2/5/4 86/9/6
f 7/10/7 11/11/8 10/12/9
f 8/13/10 16/14/11 10/12/9
f 7/15/7 13/16/12 8/17/10
f 64/18/13 4/19/14 12/20/15
f 11/11/8 93/21/16 70/22/17
f 68/23/18 30/24/19 63/25/20
f 104/26/21 6/2/2 22/1/1
f 47/27/22 64/18/13 26/28/23
f 125/29/24 117/30/25 47/27/22
f 27/31/26 52/32/27 33/33/28
f 27/31/26 80/34/29 52/32/27
f 100/35/30 29/36/31 105/37/32
f 10/38/9 39/39/33 15/40/34
f 10/38/9 15/40/34 13/16/12
f 101/41/35 45/42/36 76/43/37
f 13/16/12 65/44/38 16/45/11
f 76/43/37 45/42/36 39/39/33
f 16/45/11 8/17/10 13/16/12
f 10/38/9 13/16/12 7/15/7
f 94/46/39 24/47/40 49/48/41
f 5/49/42 64/18/13 12/20/15
f 49/48/41 88/50/43 54/51/44
f 11/11/8 8/13/10 10/12/9
f 51/52/45 17/53/46 37/54/47
f 43/55/48 85/56/49 36/57/50
f 103/58/51 78/59/52 126/60/53
f 126/61/53 78/62/52 69/63/54
f 17/53/46 41/64/55 37/54/47
f 122/65/56 103/58/51 95/66/57
f 31/67/58 21/68/59 91/69/60
f 68/23/18 63/25/20 111/70/61
f 41/64/55 17/53/46 82/71/62
f 62/72/63 21/68/59 74/73/64
f 88/50/43 113/74/65 104/26/21
f 9/75/66 109/76/67 45/42/36
f 63/25/20 30/24/19 73/77/68
f 59/78/69 122/65/56 95/66/57
f 44/79/70 36/57/50 129/80/71
f 47/27/22 26/28/23 125/29/24
f 76/43/37 83/81/72 101/41/35
f 109/76/67 9/75/66 56/82/73
f 101/41/35 120/83/74 130/84/75
f 64/18/13 115/85/76 83/81/72
f 120/83/74 101/41/35 83/81/72
f 5/49/42 80/34/29 27/31/26
f 105/37/32 64/18/13 5/49/42
f 36/57/50 28/86/77 111/70/61
f 127/87/78 79/88/79 58/89/80
f 14/90/81 105/37/32 29/36/31
f 24/47/40 64/18/13 49/48/41
f 30/24/19 119/91/82 127/87/78
f 39/39/33 30/24/19 127/87/78
f 19/92/83 84/93/84 72/94/85
f 53/95/86 51/96/45 103/58/51
f 32/97/87 98/98/88 112/99/89
f 106/100/90 124/101/91 90/102/92
f 128/103/93 65/104/38 33/33/28
f 46/105/94 33/106/28 65/44/38
f 104/26/21 113/74/65 6/2/2
f 35/107/95 86/9/6 6/4/2
f 34/108/96 35/107/95 6/4/2
f 37/54/47 99/109/97 51/52/45
f 46/105/94 65/44/38 13/16/12
f 28/86/77 46/105/94 58/89/80
f 123/110/98 37/54/47 35/107/95
f 41/64/55 112/99/89 37/54/47
f 60/111/99 124/101/91 106/100/90
f 66/112/100 55/113/101 57/114/102
f 39/39/33 70/22/17 93/21/16
f 39/39/33 10/38/9 70/22/17
f 40/115/103 85/56/49 43/55/48
f 96/116/104 71/117/105 38/118/106
f 106/100/90 41/64/55 87/119/107
f 112/99/89 116/120/108 32/97/87
f 117/30/25 42/121/109 93/21/16
f 76/43/37 125/29/24 26/28/23
f 102/122/110 75/123/111 71/117/105
f 102/122/110 50/124/112 75/123/111
f 44/125/70 27/31/26 33/33/28
f 44/79/70 33/106/28 36/57/50
f 109/76/67 30/24/19 45/42/36
f 39/39/33 45/42/36 30/24/19
f 28/86/77 36/57/50 46/105/94
f 36/57/50 33/106/28 46/105/94
f 4/19/14 64/18/13 47/27/22
f 4/19/14 80/34/29 5/49/42
f 35/107/95 37/54/47 48/126/113
f 48/126/113 86/9/6 35/107/95
f 49/48/41 14/90/81 29/36/31
f 49/48/41 91/69/60 21/68/59
f 86/9/6 48/126/113 98/98/88
f 63/25/20 73/77/68 20/127/114
f 51/96/45 131/128/115 84/93/84
f 84/93/84 19/92/83 51/96/45
f 117/30/25 52/32/27 80/34/29
f 65/104/38 128/103/93 8/129/10
f 51/96/45 53/95/86 17/130/46
f 89/131/116 69/63/54 66/112/100
f 97/132/117 88/50/43 104/26/21
f 77/133/118 56/82/73 25/134/119
f 40/115/103 121/135/120 55/113/101
f 40/115/103 55/113/101 85/56/49
f 54/51/44 94/46/39 49/48/41
f 130/84/75 97/132/117 25/134/119
f 110/136/121 57/114/102 18/137/122
f 96/116/104 38/118/106 60/111/99
f 58/89/80 13/16/12 15/40/34
f 13/16/12 58/89/80 46/105/94
f 23/138/123 100/35/30 44/125/70
f 44/125/70 100/35/30 27/31/26
f 82/71/62 96/116/104 60/111/99
f 82/71/62 87/119/107 41/64/55
f 61/139/124 55/113/101 23/140/123
f 44/79/70 129/80/71 23/140/123
f 51/96/45 99/141/97 131/128/115
f 34/142/96 6/2/2 113/74/65
f 67/143/125 20/127/114 50/124/112
f 102/122/110 67/143/125 50/124/112
f 64/18/13 105/37/32 14/90/81
f 14/90/81 49/48/41 64/18/13
f 65/44/38 8/144/10 11/145/8
f 11/145/8 16/45/11 65/44/38
f 17/53/46 126/61/53 92/146/126
f 17/53/46 92/146/126 81/147/127
f 63/25/20 20/127/114 67/143/125
f 102/122/110 63/25/20 67/143/125
f 68/23/18 111/70/61 28/86/77
f 119/91/82 79/88/79 127/87/78
f 55/113/101 69/63/54 23/140/123
f 69/63/54 55/113/101 66/112/100
f 10/38/9 16/148/11 70/22/17
f 16/148/11 11/11/8 70/22/17
f 40/115/103 71/117/105 96/116/104
f 43/55/48 71/117/105 40/115/103
f 31/67/58 91/69/60 72/94/85
f 59/78/69 95/66/57 29/36/31
f 73/77/68 118/149/128 20/127/114
f 56/82/73 77/133/118 109/76/67
f 74/73/64 31/67/58 72/94/85
f 74/73/64 21/68/59 31/67/58
f 75/123/111 60/111/99 38/118/106
f 71/117/105 75/123/111 38/118/106
f 39/39/33 93/21/16 76/43/37
f 42/121/109 76/43/37 93/21/16
f 118/149/128 104/26/21 22/1/1
f 22/1/1 86/9/6 118/149/128
f 114/150/129 23/138/123 78/59/52
f 78/62/52 23/140/123 69/63/54
f 58/89/80 79/88/79 28/86/77
f 79/88/79 119/91/82 28/86/77
f 47/27/22 80/34/29 4/19/14
f 117/30/25 80/34/29 47/27/22
f 81/147/127 82/71/62 17/53/46
f 110/136/121 18/137/122 81/147/127
f 96/116/104 82/71/62 18/137/122
f 18/137/122 82/71/62 81/147/127
f 26/28/23 64/18/13 83/81/72
f 26/28/23 83/81/72 76/43/37
f 74/73/64 72/94/85 84/93/84
f 131/128/115 74/73/64 84/93/84
f 85/56/49 55/113/101 61/139/124
f 129/80/71 36/57/50 85/56/49
f 118/149/128 86/9/6 20/127/114
f 86/9/6 50/124/112 20/127/114
f 87/119/107 60/111/99 106/100/90
f 82/71/62 60/111/99 87/119/107
f 88/50/43 21/68/59 113/74/65
f 21/68/59 88/50/43 49/48/41
f 17/130/46 53/95/86 126/60/53
f 126/60/53 53/95/86 103/58/51
f 90/102/92 75/123/111 50/124/112
f 32/97/87 90/102/92 98/98/88
f 95/66/57 91/69/60 29/36/31
f 49/48/41 29/36/31 91/69/60
f 66/112/100 57/114/102 110/136/121
f 110/136/121 89/131/116 66/112/100
f 11/11/8 7/10/7 93/21/16
f 7/10/7 117/30/25 93/21/16
f 25/134/119 56/82/73 130/84/75
f 101/41/35 130/84/75 56/82/73
f 72/94/85 95/66/57 19/92/83
f 72/94/85 91/69/60 95/66/57
f 18/137/122 121/135/120 96/116/104
f 121/135/120 40/115/103 96/116/104
f 130/84/75 54/51/44 97/132/117
f 54/51/44 88/50/43 97/132/117
f 98/98/88 50/124/112 86/9/6
f 50/124/112 98/98/88 90/102/92
f 108/151/130 99/141/97 34/142/96
f 34/108/96 123/110/98 35/107/95
f 114/150/129 100/35/30 23/138/123
f 100/35/30 59/78/69 29/36/31
f 45/42/36 101/41/35 9/75/66
f 9/75/66 101/41/35 56/82/73
f 102/122/110 71/117/105 43/55/48
f 111/70/61 63/25/20 102/122/110
f 19/92/83 103/58/51 51/96/45
f 95/66/57 103/58/51 19/92/83
f 25/134/119 104/26/21 77/133/118
f 25/134/119 97/132/117 104/26/21
f 100/35/30 105/37/32 27/31/26
f 105/37/32 5/49/42 27/31/26
f 106/100/90 90/102/92 32/97/87
f 32/97/87 116/120/108 106/100/90
f 114/150/129 78/59/52 107/152/131
f 78/59/52 103/58/51 107/152/131
f 74/73/64 131/128/115 62/72/63
f 113/74/65 21/68/59 62/72/63
f 109/76/67 118/149/128 73/77/68
f 109/76/67 73/77/68 30/24/19
f 92/146/126 126/61/53 110/136/121
f 81/147/127 92/146/126 110/136/121
f 43/55/48 111/70/61 102/122/110
f 111/70/61 43/55/48 36/57/50
f 48/126/113 37/54/47 112/99/89
f 48/126/113 112/99/89 98/98/88
f 108/151/130 113/74/65 62/72/63
f 34/142/96 113/74/65 108/151/130
f 122/65/56 59/78/69 114/150/129
f 59/78/69 100/35/30 114/150/129
f 115/85/76 64/18/13 24/47/40
f 83/81/72 115/85/76 120/83/74
f 116/120/108 41/64/55 106/100/90
f 116/120/108 112/99/89 41/64/55
f 128/103/93 117/30/25 8/129/10
f 8/129/10 117/30/25 7/10/7
f 77/133/118 118/149/128 109/76/67
f 77/133/118 104/26/21 118/149/128
f 119/91/82 30/24/19 68/23/18
f 28/86/77 119/91/82 68/23/18
f 24/47/40 120/83/74 115/85/76
f 94/46/39 120/83/74 24/47/40
f 57/114/102 121/135/120 18/137/122
f 55/113/101 121/135/120 57/114/102
f 107/152/131 103/58/51 122/65/56
f 114/150/129 107/152/131 122/65/56
f 34/108/96 99/109/97 123/110/98
f 99/109/97 37/54/47 123/110/98
f 90/102/92 124/101/91 75/123/111
f 75/123/111 124/101/91 60/111/99
f 125/29/24 76/43/37 42/121/109
f 42/121/109 117/30/25 125/29/24
f 126/61/53 89/131/116 110/136/121
f 89/131/116 126/61/53 69/63/54
f 58/89/80 15/40/34 127/87/78
f 39/39/33 127/87/78 15/40/34
f 52/32/27 128/103/93 33/33/28
f 128/103/93 52/32/27 117/30/25
f 85/56/49 61/139/124 129/80/71
f 61/139/124 23/140/123 129/80/71
f 54/51/44 130/84/75 94/46/39
f 120/83/74 94/46/39 130/84/75
f 131/128/115 99/141/97 108/151/130
f 108/151/130 62/72/63 131/128/115
