# Blender 4.1.1
# www.blender.org
mtllib Stick1.mtl
o Twig.1
v 5.704650 -0.341979 0.333117
v 0.222471 -0.497455 0.177641
v 0.222471 -0.497455 -0.144249
v 5.704650 -0.341979 -0.299725
v 5.704650 -0.974821 0.333117
v 0.222471 -0.819345 0.177641
v 0.222471 -0.819345 -0.144249
v 5.704650 -0.974821 -0.299725
v 5.773989 -0.658400 0.402456
v 0.930488 -0.626941 0.141294
v 0.187202 -0.658400 0.212910
v 1.018996 -0.859894 0.141294
v 0.187202 -0.462186 0.016695
v 0.187202 -0.658400 -0.179518
v 0.187202 -0.854614 0.016695
v 0.930488 -0.626941 -0.107904
v 5.773989 -0.658400 -0.369064
v 1.018996 -0.859894 -0.107904
v 5.773989 -0.272640 0.016695
v 5.773989 -1.044160 0.016695
v 0.974741 -0.743418 0.188297
v 0.113187 -0.658400 0.016695
v 0.974741 -0.743418 -0.154905
v 0.913795 -0.583004 0.016695
v 1.035689 -0.903831 0.016695
v 7.843124 0.097447 0.056063
v 7.819631 0.150691 -0.281004
v 7.597241 -0.123369 0.058527
v 7.573748 -0.004493 -0.261345
v 7.748684 -0.046973 0.115873
v 7.720041 0.097954 -0.274092
v 7.884245 0.123633 -0.116224
v 7.584480 -0.113628 -0.119804
v 4.751924 -0.371544 0.303553
v 9.862669 -2.256094 -0.201107
v 9.857933 -2.308887 -0.363283
v 9.742074 -2.369782 -0.160578
v 9.737337 -2.422574 -0.322754
v 9.816106 -2.319836 -0.159330
v 9.810331 -2.384198 -0.357046
v 9.886729 -2.282717 -0.282894
v 9.739708 -2.421317 -0.233482
v 9.840949 -2.378633 -0.250334
v 4.751924 -0.945256 0.303553
v 4.751924 -0.371544 -0.270161
v 4.751924 -0.945256 -0.270161
v 4.801553 -0.658400 0.375957
v 4.801553 -0.658400 -0.342566
v 4.801553 -0.299138 0.016695
v 4.801553 -1.017662 0.016695
v 7.271696 0.066647 -0.048500
v 7.167242 -0.121020 0.275831
v 7.042672 -0.279724 0.229252
v 7.062788 -0.337391 0.016695
v 7.214029 0.004876 -0.252874
v 7.167242 -0.121020 -0.242439
v 7.042672 -0.279724 -0.195862
v 7.214029 0.088980 0.163836
v 8.997178 -1.248737 -0.509596
v 8.987703 -1.241503 -0.642029
v 9.179777 -1.079253 -0.460020
v 9.109642 -1.192004 -0.467010
v 9.210313 -1.034879 -0.581589
v 9.162330 -0.990973 -0.697563
v 9.088372 -1.084378 -0.756605
v 8.979733 -1.160457 -0.747139
v 9.174912 -1.390794 -0.552446
v 9.283522 -1.246525 -0.447031
v 9.383923 -1.193755 -0.622692
v 9.171542 -1.392581 -0.679358
v 9.178277 -1.317529 -0.448803
v 9.349720 -1.155907 -0.506422
v 9.342985 -1.230959 -0.736979
v 9.275313 -1.338024 -0.728109
v 6.337191 -2.312026 0.783905
v 6.430448 -2.097686 0.772909
v 6.460977 -2.087299 0.668852
v 6.430448 -2.097686 0.564796
v 6.337191 -2.312026 0.553801
v 6.372036 -2.306994 0.668852
v 10.188448 -0.880815 -0.537580
v 10.109845 -0.811181 -0.503162
v 10.180923 -0.842731 -0.640059
v 10.101963 -0.771298 -0.610479
v 10.123641 -0.791134 -0.558084
v 10.201623 -0.861672 -0.590025
v 2.818616 0.210198 0.253258
v 2.986653 -0.232078 -0.219866
v 2.918694 -0.004838 0.330099
v 2.918694 -0.004838 -0.296707
v 2.807384 0.288132 0.016695
v 3.030004 -0.297809 0.016695
v 2.986653 -0.232078 0.253258
v 2.818616 0.210198 -0.219866
v 7.640926 0.786795 0.036312
v 7.849764 0.613024 -0.092459
v 7.826767 0.672825 -0.151749
v 7.846291 0.590005 -0.008326
v 7.606204 0.853570 -0.040897
v 7.630470 0.750639 0.137354
v 8.635304 1.616171 0.379869
v 8.710484 1.553614 0.333513
v 8.702205 1.575143 0.312168
v 8.709232 1.545328 0.363800
v 8.622804 1.640210 0.352074
v 8.631538 1.603155 0.416243
vn -0.1686 0.2612 0.9505
vn 0.0714 0.3965 0.9153
vn 0.0238 -0.3663 0.9302
vn 0.0474 -0.3072 0.9505
vn -0.9004 0.2718 0.3397
vn -0.9004 0.3397 -0.2718
vn -0.9004 -0.3397 -0.2718
vn -0.9004 -0.2718 0.3397
vn 0.0859 0.1953 -0.9770
vn -0.0375 0.2385 -0.9704
vn -0.0375 -0.2385 -0.9704
vn 0.0076 -0.2125 -0.9771
vn -0.0286 -0.0720 -0.9970
vn 0.9323 0.0828 -0.3520
vn 0.2405 -0.8408 0.4850
vn 0.3386 -0.8995 0.2761
vn -0.3982 0.8655 -0.3040
vn 0.1865 0.9341 -0.3044
vn 0.1865 0.9341 0.3044
vn -0.3982 0.8655 0.3040
vn 0.2770 -0.9115 0.3040
vn -0.0331 -0.9440 0.3284
vn -0.0331 -0.9440 -0.3284
vn 0.2770 -0.9115 -0.3040
vn 0.2256 -0.2212 -0.9488
vn 0.8724 0.2771 -0.4027
vn -0.8725 -0.3852 0.3006
vn 0.2791 0.3754 0.8838
vn 0.3169 -0.9074 -0.2762
vn 0.1579 0.2879 0.9446
vn -0.1027 0.2404 -0.9652
vn 0.0460 -0.3144 -0.9482
vn 0.8191 -0.5349 -0.2071
vn 0.8841 -0.3005 0.3579
vn 0.4040 -0.7531 0.5193
vn 0.4350 -0.8971 -0.0780
vn -0.1439 0.1890 0.9714
vn -0.8804 -0.4732 0.0300
vn 0.8875 0.4460 0.1159
vn -0.1982 -0.4161 -0.8875
vn 0.8642 0.4966 -0.0806
vn -0.5994 -0.7709 -0.2153
vn -0.0266 0.9777 0.2084
vn -0.0266 0.9777 -0.2084
vn -0.1460 -0.3558 -0.9231
vn 0.0876 0.3711 -0.9244
vn -0.0266 -0.2084 0.9777
vn -0.0266 0.2084 0.9777
vn 0.2044 -0.2521 -0.9459
vn -0.2247 0.9608 -0.1621
vn -0.0376 0.4768 0.8782
vn 0.4626 -0.8436 -0.2726
vn 0.4592 -0.8414 0.2850
vn 0.2510 -0.4488 0.8577
vn -0.2161 0.9626 -0.1636
vn 0.0057 0.2152 -0.9765
vn -0.1990 0.1640 -0.9662
vn 0.6790 0.6181 0.3962
vn -0.6576 -0.6199 -0.4281
vn -0.0652 -0.5132 0.8558
vn 0.4283 0.0922 0.8989
vn -0.6260 -0.7798 0.0022
vn 0.6221 0.7742 -0.1168
vn -0.1709 0.1962 -0.9655
vn 0.0722 -0.2241 -0.9719
vn -0.2431 0.8696 0.4298
vn -0.6313 -0.7750 0.0277
vn -0.0831 0.0984 0.9917
vn 0.3751 0.3007 0.8769
vn -0.4505 -0.7221 0.5250
vn 0.3015 -0.8770 0.3742
vn 0.0214 -0.0960 -0.9952
vn 0.9024 -0.3653 -0.2283
vn 0.9024 -0.3653 0.2283
vn -0.0430 -0.5519 -0.8328
vn -0.6732 -0.7013 0.2346
vn 0.8182 0.5725 0.0538
vn -0.2955 0.1767 0.9389
vn 0.7001 0.5959 0.3934
vn 0.6714 0.7411 0.0028
vn 0.3506 -0.8186 -0.4550
vn 0.1278 -0.2907 0.9482
vn -0.2545 0.9273 0.2745
vn -0.0474 0.3370 -0.9403
vn -0.1903 0.3043 -0.9334
vn 0.0598 -0.3539 -0.9334
vn -0.3712 -0.9135 -0.1664
vn -0.3712 -0.9135 0.1664
vn 0.2700 0.9215 0.2793
vn 0.2700 0.9215 -0.2793
vn -0.1180 -0.2238 0.9675
vn 0.0649 0.2548 0.9648
vn 0.1939 -0.5032 0.8421
vn -0.6026 0.4493 0.6596
vn -0.8910 0.4488 0.0684
vn 0.1694 -0.0672 0.9833
vn -0.9117 0.3862 0.1405
vn 0.9715 0.0246 0.2356
vn 0.6880 0.6726 0.2723
vn 0.6996 0.6813 0.2153
vn 0.7614 -0.6327 -0.1416
vn -0.6667 0.7210 0.1890
vn -0.0395 0.4869 -0.8725
vn 0.6955 -0.3530 -0.6258
vn -0.1903 0.3044 0.9334
vn 0.0859 0.1953 0.9770
vn 0.0076 -0.2125 0.9771
vn 0.0598 -0.3539 0.9334
vn -0.9004 0.3397 0.2717
vn -0.9004 0.2718 -0.3397
vn -0.9004 -0.2718 -0.3397
vn -0.9004 -0.3397 0.2717
vn 0.0714 0.3965 -0.9153
vn -0.0266 0.2084 -0.9777
vn -0.0266 -0.2084 -0.9777
vn 0.0238 -0.3663 -0.9302
vn -0.0272 -0.0791 -0.9965
vn 0.9502 0.0626 -0.3054
vn 0.3820 -0.5234 0.7616
vn 0.3758 -0.9235 -0.0773
vn -0.3967 0.8477 -0.3521
vn 0.1614 0.9708 -0.1774
vn 0.1614 0.9708 0.1774
vn -0.3967 0.8477 0.3521
vn 0.2663 -0.8973 0.3521
vn -0.0564 -0.9726 0.2255
vn -0.0564 -0.9726 -0.2255
vn 0.2663 -0.8973 -0.3521
vn 0.3108 -0.7412 -0.5951
vn 0.1884 0.4292 0.8834
vn -0.1999 0.3234 -0.9249
vn -0.0182 -0.0978 -0.9950
vn 0.8690 -0.4687 -0.1587
vn 0.8380 -0.3247 0.4386
vn 0.4538 -0.6869 0.5677
vn 0.3889 -0.9213 0.0026
vn 0.8723 0.3901 -0.2949
vn -0.6517 -0.7545 0.0777
vn -0.0375 0.9704 0.2385
vn -0.0375 0.9704 -0.2385
vn -0.1180 -0.2238 -0.9675
vn 0.0649 0.2548 -0.9648
vn -0.0375 -0.2385 0.9704
vn -0.0375 0.2385 0.9704
vn 0.2510 -0.4488 -0.8577
vn -0.2554 0.9546 0.1532
vn 0.0057 0.2153 0.9765
vn 0.4592 -0.8414 -0.2850
vn 0.4626 -0.8436 0.2726
vn 0.2044 -0.2521 0.9459
vn -0.2246 0.9485 -0.2233
vn 0.0544 -0.1026 -0.9932
vn 0.6928 0.6698 0.2672
vn 0.2346 -0.2049 0.9503
vn 0.6601 0.7511 0.0112
vn 0.1194 0.4612 -0.8792
vn -0.2706 -0.3021 -0.9141
vn -0.6200 -0.6434 -0.4491
vn -0.3335 -0.0458 0.9416
vn -0.1117 0.0079 0.9937
vn -0.6241 -0.7814 0.0020
vn 0.3739 -0.8976 -0.2337
vn 0.2714 0.3515 -0.8960
vn 0.8917 -0.3749 -0.2537
vn 0.8917 -0.3749 0.2537
vn 0.5904 -0.2170 -0.7774
vn -0.6238 -0.7766 -0.0881
vn 0.7524 0.5961 0.2802
vn -0.0198 0.3109 0.9502
vn 0.6715 0.7410 0.0028
vn 0.4012 -0.9035 0.1504
vn 0.1368 -0.3105 0.9407
vn 0.0452 0.1950 -0.9798
vn -0.1686 0.2612 -0.9505
vn 0.0474 -0.3072 -0.9505
vn -0.3727 -0.9095 -0.1844
vn -0.3727 -0.9095 0.1844
vn 0.2704 0.9181 0.2896
vn 0.2704 0.9181 -0.2896
vn -0.1460 -0.3558 0.9231
vn 0.0876 0.3711 0.9244
vn -0.8185 0.5042 -0.2753
vn 0.6064 0.0992 0.7889
vn -0.7390 0.3084 0.5990
vn 0.9960 0.0673 0.0595
vn 0.7164 0.6105 0.3379
vn 0.6926 0.6535 0.3055
vn 0.7614 -0.6326 -0.1416
vt -1.208100 4.179786
vt -1.669397 7.042677
vt -1.330872 4.035658
vt -1.602547 7.104897
vt -1.612355 8.260685
vt -1.694264 8.206170
vt -1.726887 6.972435
vt -1.444167 3.928301
vt 2.715472 -3.279761
vt 2.827086 -3.474765
vt 2.799570 -3.211376
vt 2.735523 -3.760927
vt 2.715472 -3.506401
vt 2.567193 -3.795800
vt 2.705365 -3.653245
vt 2.587920 -3.606912
vt 2.466656 -3.543709
vt 2.424450 -3.664441
vt 0.309068 7.044288
vt 0.296413 8.196346
vt 0.220249 8.135871
vt 0.245899 -0.353000
vt 0.380059 1.056082
vt 0.243144 1.122316
vt 0.570346 -0.330973
vt 0.537277 1.142285
vt 0.362479 6.980236
vt 0.385277 8.147075
vt 0.111104 -2.701509
vt 0.072035 -3.487727
vt 0.176174 -2.624801
vt 2.927635 -5.264744
vt 2.977770 -5.817158
vt 3.042619 -5.355114
vt 2.482324 -2.258778
vt 2.340082 -2.543903
vt 2.399487 -2.649627
vt 2.255512 -2.142113
vt 2.417738 -2.080769
vt 1.522747 -4.498477
vt 1.712068 -6.439998
vt 1.699947 -4.453608
vt 1.605950 -7.260685
vt 1.618497 -6.451355
vt 1.844518 -7.169606
vt 1.803191 -6.380844
vt 1.873402 -4.364607
vt 3.338993 -0.342366
vt 3.220789 1.138250
vt 3.156650 -0.294103
vt 2.624166 -2.835320
vt 2.527116 -2.835320
vt 2.711922 -2.920120
vt 2.978096 -0.342366
vt 0.774011 -5.841120
vt 1.342602 -6.712026
vt 1.381062 -6.635782
vt 3.017604 -4.598281
vt 3.022902 -3.606345
vt 2.927637 -4.607837
vt 2.764752 -4.944324
vt 2.424451 -3.841913
vt 2.685549 -4.998201
vt -2.026374 -5.847121
vt -2.593379 -6.702547
vt -1.973973 -5.956228
vt 0.261878 -2.426862
vt 0.201436 -3.271817
vt 0.325165 -2.457724
vt -1.345179 -2.620694
vt -1.421995 -3.448791
vt -1.341745 -3.602602
vt -0.201031 -3.673914
vt 0.046272 -3.643640
vt 0.123091 -3.257848
vt 3.090635 -3.473248
vt 3.012119 -3.512700
vt 3.148511 -3.570863
vt 3.086186 -3.599624
vt 3.152613 -3.392784
vt 3.091186 -3.382521
vt 3.027003 -3.428266
vt -2.061626 -5.683237
vt -2.630239 -6.625801
vt 2.548144 -3.797981
vt 2.480165 -3.804015
vt 0.807153 -5.679013
vt 1.404374 -6.521754
vt 2.092172 -0.941654
vt 2.332323 0.062492
vt 1.873405 -1.138933
vt 2.002692 -5.073159
vt 1.959304 -2.667783
vt 1.873402 -2.649627
vt 1.654594 -2.175514
vt 1.873403 -1.081912
vt 1.639255 -1.103340
vt 1.404374 -1.260975
vt 0.137753 3.849148
vt 0.007625 3.947046
vt -0.092969 4.093823
vt -1.714826 1.141006
vt -1.894082 -0.252867
vt -1.735638 -0.360080
vt -1.560794 -0.264734
vt 0.398917 -0.448735
vt 1.732573 0.486138
vt 1.573774 0.492597
vt -1.466055 -2.534871
vt 2.111333 -2.296045
vt 2.329531 -0.818466
vt -1.542670 -2.343288
vt 1.421908 0.378637
vt 0.673008 -5.389676
vt 2.678405 -2.561889
vt 2.661783 -0.956473
vt 2.577129 -0.896376
vt 2.560859 -7.190897
vt 2.927636 -5.248504
vt 2.847441 -5.196677
vt -2.015958 -5.409744
vt -1.992422 -5.581038
vt -1.935048 -5.690981
vt 2.746143 -5.194495
vt 2.424452 -7.187958
vt 2.482322 -0.919678
vt 2.544417 -2.586646
vt 0.635092 -5.560388
vt 2.717622 0.007075
vt 2.861392 -4.935747
vt 3.165253 -5.177077
vt 3.106208 -4.557396
vt 0.719335 -5.949509
vt 2.370059 0.337403
vt 2.410121 0.092765
vt 2.482323 0.167880
vt 1.404374 -1.270383
vt 2.223618 -5.097591
vt 2.042561 -2.740221
vt 2.978096 -0.027803
vt 2.798698 1.065858
vt 2.798697 -0.342367
vt -2.655035 -1.167212
vt -2.542801 -1.316341
vt 2.760455 0.017602
vt 2.787630 0.091218
vt 2.751110 0.117145
vt 2.710211 0.107094
vt 3.098430 -5.264743
vt 3.131649 -5.228610
vt -1.806952 -7.137535
vt 2.798698 -0.009549
vt 0.521413 -7.141206
vt 0.555277 -7.260686
vt 0.430592 6.915413
vt 2.056340 -7.088681
vt 2.424450 -5.299034
vt 1.866444 -2.140273
vt 1.441236 -2.302606
vt -1.857763 1.216931
vt -1.555615 1.206173
vt -1.075985 -3.622228
vt -0.599359 -4.818961
vt -1.001860 -3.279161
vt 3.092601 -0.938643
vt 3.110251 -2.649390
vt 3.141626 -0.937979
vt 2.963088 -0.493278
vt 2.961966 -1.357368
vt 3.039848 -1.362263
vt 3.092602 -1.389294
vt 3.092602 -0.342365
vt 3.041939 -5.841536
vt 3.173963 -5.412560
vt 2.447612 -2.761751
vt 2.424451 -2.649629
vt 2.424451 -2.756581
vt 2.461980 -2.675572
vt 2.441876 -2.654398
vt 3.025395 -7.251908
vt 3.048496 -7.260684
vt 3.052271 -2.647864
vt 3.080306 -2.649627
vt -0.599359 -4.943723
vt -0.570364 -5.064021
vt 2.927635 -5.831898
vt -1.524740 8.200134
vt 2.824014 -3.797982
vt 2.715471 -3.797980
vt 2.212750 -2.638169
vt 1.726574 -7.258514
vt 3.316681 1.100922
vt 3.126592 1.100922
vt -0.281575 -3.339748
vt 3.165254 -3.469444
vt -2.655035 -6.510522
vt 2.798697 -2.649628
vt 2.668848 -7.260684
vt -1.453689 -3.218128
vt 0.598189 -5.678586
vt 2.285090 0.298274
vt 2.450938 0.414796
vt 1.298412 -1.422267
vt 2.858660 1.165145
vt -1.841666 -7.260684
vt 2.221213 -7.260683
vt 1.873403 -7.074411
vt -0.626044 -4.942462
vt 3.092601 -2.649629
vt 2.798699 -0.566992
vt 2.471092 -2.788824
vt 3.007347 -7.257214
s 0
usemtl Wood
f 87/1/1 21/2/1 89/3/1
f 10/4/2 11/5/2 21/2/2
f 21/2/3 6/6/3 12/7/3
f 21/2/4 93/8/4 89/3/4
f 2/9/5 22/10/5 11/11/5
f 3/12/6 22/10/6 13/13/6
f 22/14/7 7/15/7 15/16/7
f 22/14/8 6/17/8 11/18/8
f 16/19/9 14/20/9 3/21/9
f 4/22/10 48/23/10 45/24/10
f 48/23/11 8/25/11 46/26/11
f 23/27/12 7/28/12 14/20/12
f 55/29/13 31/30/13 56/31/13
f 27/32/14 96/33/14 32/34/14
f 52/35/15 28/36/15 30/37/15
f 54/38/16 28/36/16 53/39/16
f 94/40/17 24/41/17 91/42/17
f 3/43/18 24/41/18 16/44/18
f 24/41/19 2/45/19 10/46/19
f 24/41/20 87/47/20 91/42/20
f 93/48/21 25/49/21 92/50/21
f 6/17/22 25/51/22 12/52/22
f 25/51/23 7/15/23 18/53/23
f 25/49/24 88/54/24 92/50/24
f 74/55/25 36/56/25 40/57/25
f 69/58/26 36/59/26 73/60/26
f 67/61/27 37/62/27 71/63/27
f 68/64/28 35/65/28 72/66/28
f 57/67/29 33/68/29 54/69/29
f 58/70/30 30/71/30 26/72/30
f 55/29/31 97/73/31 27/74/31
f 56/31/32 29/75/32 57/67/32
f 36/59/33 43/76/33 40/77/33
f 35/78/34 43/76/34 41/79/34
f 43/76/35 37/80/35 42/81/35
f 43/76/36 38/82/36 40/77/36
f 71/83/37 39/84/37 68/64/37
f 67/61/38 38/85/38 42/86/38
f 69/58/39 35/78/39 41/79/39
f 70/87/40 40/57/40 38/88/40
f 20/89/41 78/90/41 8/91/41
f 44/92/42 80/93/42 75/94/42
f 49/95/43 1/96/43 19/97/43
f 4/98/44 49/95/44 19/97/44
f 48/23/45 88/99/45 90/100/45
f 45/24/46 90/100/46 94/101/46
f 47/102/47 5/103/47 9/104/47
f 1/105/48 47/102/48 9/104/48
f 17/106/49 57/67/49 8/25/49
f 19/97/50 58/107/50 51/108/50
f 1/105/51 52/109/51 58/70/51
f 20/89/52 57/110/52 54/38/52
f 20/89/53 53/39/53 5/111/53
f 9/104/54 53/112/54 52/109/54
f 19/97/55 55/113/55 4/98/55
f 4/22/56 56/31/56 17/106/56
f 31/30/57 66/114/57 29/75/57
f 32/115/58 61/116/58 63/117/58
f 33/118/59 66/119/59 60/120/59
f 30/71/60 59/121/60 62/122/60
f 30/71/61 61/123/61 26/72/61
f 33/118/62 59/124/62 28/125/62
f 32/115/63 64/126/63 27/127/63
f 27/74/64 65/128/64 31/30/64
f 65/128/65 70/87/65 66/114/65
f 63/117/66 84/129/66 64/126/66
f 60/120/67 70/130/67 67/61/67
f 62/122/68 71/83/68 68/64/68
f 61/123/69 68/64/69 72/66/69
f 59/124/70 67/61/70 71/63/70
f 69/58/71 81/131/71 72/132/71
f 65/128/72 73/133/72 74/55/72
f 80/134/73 78/90/73 77/135/73
f 76/136/74 80/134/74 77/135/74
f 8/25/75 79/137/75 46/26/75
f 50/138/76 79/139/76 80/93/76
f 5/140/77 77/141/77 20/142/77
f 5/103/78 75/143/78 76/144/78
f 85/145/79 81/146/79 86/147/79
f 85/145/80 83/148/80 84/129/80
f 69/58/81 83/149/81 86/150/81
f 72/66/82 82/151/82 61/123/82
f 63/117/83 82/152/83 85/145/83
f 73/133/84 84/153/84 83/154/84
f 94/101/85 23/27/85 16/19/85
f 23/27/86 88/99/86 18/155/86
f 92/156/87 46/157/87 50/138/87
f 44/92/88 92/156/88 50/138/88
f 49/95/89 87/47/89 34/158/89
f 94/40/90 49/95/90 45/159/90
f 47/102/91 93/8/91 44/160/91
f 34/161/92 89/3/92 47/102/92
f 98/162/93 106/163/93 100/164/93
f 95/165/94 105/166/94 99/167/94
f 51/168/95 100/169/95 95/170/95
f 26/72/96 100/164/96 58/70/96
f 51/168/97 99/171/97 55/172/97
f 32/34/98 98/173/98 26/174/98
f 101/175/99 103/176/99 105/177/99
f 101/175/100 104/178/100 102/179/100
f 98/173/101 102/180/101 104/181/101
f 95/170/102 106/182/102 101/183/102
f 97/73/103 105/184/103 103/185/103
f 97/186/104 102/180/104 96/33/104
f 87/1/105 10/4/105 21/2/105
f 10/4/106 2/187/106 11/5/106
f 21/2/107 11/5/107 6/6/107
f 21/2/108 12/7/108 93/8/108
f 2/9/109 13/13/109 22/10/109
f 3/12/110 14/188/110 22/10/110
f 22/14/111 14/189/111 7/15/111
f 22/14/112 15/16/112 6/17/112
f 16/19/113 23/27/113 14/20/113
f 4/22/114 17/106/114 48/23/114
f 48/23/115 17/106/115 8/25/115
f 23/27/116 18/155/116 7/28/116
f 55/29/117 27/74/117 31/30/117
f 27/32/118 97/186/118 96/33/118
f 52/35/119 53/39/119 28/36/119
f 54/38/120 33/190/120 28/36/120
f 94/40/121 16/44/121 24/41/121
f 3/43/122 13/191/122 24/41/122
f 24/41/123 13/191/123 2/45/123
f 24/41/124 10/46/124 87/47/124
f 93/48/125 12/192/125 25/49/125
f 6/17/126 15/16/126 25/51/126
f 25/51/127 15/16/127 7/15/127
f 25/49/128 18/193/128 88/54/128
f 74/55/25 73/133/25 36/56/25
f 69/58/26 41/79/26 36/59/26
f 67/61/27 42/86/27 37/62/27
f 68/64/28 39/84/28 35/65/28
f 57/67/129 29/75/129 33/68/129
f 58/70/130 52/109/130 30/71/130
f 55/29/131 99/194/131 97/73/131
f 56/31/132 31/30/132 29/75/132
f 36/59/133 41/79/133 43/76/133
f 35/78/134 39/195/134 43/76/134
f 43/76/135 39/195/135 37/80/135
f 43/76/136 42/81/136 38/82/136
f 71/83/37 37/196/37 39/84/37
f 67/61/38 70/130/38 38/85/38
f 69/58/39 72/132/39 35/78/39
f 70/87/40 74/55/40 40/57/40
f 20/89/137 77/135/137 78/90/137
f 44/92/138 50/138/138 80/93/138
f 49/95/139 34/158/139 1/96/139
f 4/98/140 45/159/140 49/95/140
f 48/23/141 46/26/141 88/99/141
f 45/24/142 48/23/142 90/100/142
f 47/102/143 44/160/143 5/103/143
f 1/105/144 34/161/144 47/102/144
f 17/106/145 56/31/145 57/67/145
f 19/97/146 1/96/146 58/107/146
f 1/105/147 9/104/147 52/109/147
f 20/89/148 8/91/148 57/110/148
f 20/89/149 54/38/149 53/39/149
f 9/104/150 5/103/150 53/112/150
f 19/97/151 51/108/151 55/113/151
f 4/22/152 55/29/152 56/31/152
f 31/30/57 65/128/57 66/114/57
f 32/115/153 26/197/153 61/116/153
f 33/118/59 29/198/59 66/119/59
f 30/71/60 28/199/60 59/121/60
f 30/71/154 62/122/154 61/123/154
f 33/118/62 60/120/62 59/124/62
f 32/115/155 63/117/155 64/126/155
f 27/74/156 64/200/156 65/128/156
f 65/128/157 74/55/157 70/87/157
f 63/117/66 85/145/66 84/129/66
f 60/120/158 66/119/158 70/130/158
f 62/122/159 59/121/159 71/83/159
f 61/123/160 62/122/160 68/64/160
f 59/124/161 60/120/161 67/61/161
f 69/58/162 86/150/162 81/131/162
f 65/128/163 64/200/163 73/133/163
f 80/134/164 79/201/164 78/90/164
f 76/136/165 75/202/165 80/134/165
f 8/25/166 78/203/166 79/137/166
f 50/138/167 46/157/167 79/139/167
f 5/140/168 76/204/168 77/141/168
f 5/103/169 44/160/169 75/143/169
f 85/145/79 82/152/79 81/146/79
f 85/145/170 86/147/170 83/148/170
f 69/58/171 73/60/171 83/149/171
f 72/66/172 81/205/172 82/151/172
f 63/117/83 61/116/83 82/152/83
f 73/133/173 64/200/173 84/153/173
f 94/101/174 90/100/174 23/27/174
f 23/27/175 90/100/175 88/99/175
f 92/156/176 88/206/176 46/157/176
f 44/92/177 93/207/177 92/156/177
f 49/95/178 91/42/178 87/47/178
f 94/40/179 91/42/179 49/95/179
f 47/102/180 89/3/180 93/8/180
f 34/161/181 87/1/181 89/3/181
f 98/162/93 104/208/93 106/163/93
f 95/165/94 101/209/94 105/166/94
f 51/168/182 58/210/182 100/169/182
f 26/72/183 98/162/183 100/164/183
f 51/168/184 95/170/184 99/171/184
f 32/34/185 96/33/185 98/173/185
f 101/175/186 102/179/186 103/176/186
f 101/175/187 106/211/187 104/178/187
f 98/173/188 96/33/188 102/180/188
f 95/170/102 100/169/102 106/182/102
f 97/73/103 99/194/103 105/184/103
f 97/186/104 103/212/104 102/180/104
